<svg width="20" height="20" viewBox="0 0 20 20" fill="none" xmlns="http://www.w3.org/2000/svg">
<path d="M15.5555 15.9722H3.33328V4.25927H10.6777L11.7888 3.19446H3.33328C3.03859 3.19446 2.75598 3.30664 2.5476 3.50633C2.33923 3.70603 2.22217 3.97687 2.22217 4.25927V15.9722C2.22217 16.2546 2.33923 16.5255 2.5476 16.7252C2.75598 16.9249 3.03859 17.0371 3.33328 17.0371H15.5555C15.8502 17.0371 16.1328 16.9249 16.3412 16.7252C16.5496 16.5255 16.6666 16.2546 16.6666 15.9722V7.98612L15.5555 9.05094V15.9722Z" fill="white"/>
<path d="M18.6277 3.10928L16.7555 1.31506C16.6724 1.23522 16.5737 1.17187 16.465 1.12864C16.3564 1.08542 16.2399 1.06317 16.1222 1.06317C16.0045 1.06317 15.888 1.08542 15.7793 1.12864C15.6707 1.17187 15.5719 1.23522 15.4889 1.31506L7.87218 8.65696L7.25552 11.2178C7.22925 11.342 7.23201 11.4701 7.26361 11.5931C7.2952 11.7161 7.35485 11.8309 7.43825 11.9291C7.52166 12.0274 7.62675 12.1067 7.74597 12.1614C7.86519 12.2161 7.99557 12.2448 8.12774 12.2454C8.19605 12.2526 8.26498 12.2526 8.3333 12.2454L11.0277 11.6757L18.6277 4.32316C18.7111 4.24354 18.7772 4.14894 18.8223 4.04479C18.8674 3.94064 18.8906 3.82898 18.8906 3.71622C18.8906 3.60346 18.8674 3.4918 18.8223 3.38765C18.7772 3.2835 18.7111 3.1889 18.6277 3.10928ZM10.45 10.6908L8.41663 11.122L8.88885 9.18937L14.6222 3.65766L16.1889 5.15904L10.45 10.6908ZM16.8166 4.55742L15.25 3.05604L16.1111 2.21483L17.6889 3.72687L16.8166 4.55742Z" fill="white"/>
</svg>
