<svg width="19" height="23" viewBox="0 0 19 23" fill="none" xmlns="http://www.w3.org/2000/svg">
<path d="M15.5465 12C16.2493 12 16.9233 12.2735 17.4202 12.7604C17.9171 13.2473 18.1963 13.9076 18.1963 14.5962V15.4615C18.1963 18.8729 14.9106 22.3846 9.36365 22.3846C3.81675 22.3846 0.531006 18.8729 0.531006 15.4615V14.5962C0.531006 13.9076 0.81018 13.2473 1.30711 12.7604C1.80405 12.2735 2.47803 12 3.1808 12H15.5465ZM9.36365 0.75C10.6521 0.75 11.8877 1.25146 12.7987 2.14406C13.7098 3.03666 14.2216 4.24729 14.2216 5.50962C14.2216 6.77194 13.7098 7.98257 12.7987 8.87517C11.8877 9.76777 10.6521 10.2692 9.36365 10.2692C8.07524 10.2692 6.8396 9.76777 5.92856 8.87517C5.01751 7.98257 4.5057 6.77194 4.5057 5.50962C4.5057 4.24729 5.01751 3.03666 5.92856 2.14406C6.8396 1.25146 8.07524 0.75 9.36365 0.75Z" fill="#1F305C"/>
</svg>
